<svg width="16" height="16" viewBox="0 0 16 16" fill="none" xmlns="http://www.w3.org/2000/svg">
<path d="M4.32223 1.87682C5.49376 1.49998 6.76145 1.63559 7.82216 2.23745L7.99776 2.34282L8.17651 2.23686C9.18215 1.66749 10.3751 1.51535 11.4977 1.82411L11.6748 1.87686C14.1233 2.66516 15.2196 5.33863 14.3959 7.89673C13.983 9.0867 13.3057 10.1656 12.4118 11.0549C11.1953 12.2363 9.85429 13.2796 8.41471 14.1648L8.26188 14.2598C8.1067 14.3562 7.91057 14.3579 7.75379 14.264L7.59008 14.166C6.14852 13.2796 4.80751 12.2363 3.58686 11.0508C2.69706 10.1656 2.01981 9.0867 1.60338 7.8863C0.782739 5.33708 1.87451 2.66488 4.32223 1.87682ZM7.58326 3.23614C6.71387 2.64189 5.62237 2.48222 4.62119 2.80426C2.72514 3.4147 1.86555 5.51863 2.52821 7.57753C2.89267 8.62779 3.4902 9.57968 4.27071 10.3562C5.436 11.4879 6.72049 12.4872 8.09619 13.3332L8.00101 13.2732L8.31291 13.077C9.40187 12.3739 10.4275 11.5761 11.3759 10.6947L11.7279 10.3603C12.5126 9.57968 13.1101 8.62779 13.4711 7.58795C14.1366 5.5206 13.2733 3.41519 11.3762 2.80442C10.325 2.46717 9.1775 2.66034 8.29082 3.32413C8.12059 3.45157 7.88731 3.45404 7.71441 3.33021L7.58326 3.23614ZM10.5803 4.32245C11.4613 4.60363 12.086 5.39235 12.164 6.31898C12.1865 6.58709 11.9873 6.82271 11.719 6.84525C11.4506 6.86779 11.2148 6.66871 11.1922 6.4006C11.1472 5.86531 10.7878 5.41153 10.2836 5.25061C10.0271 5.16873 9.88557 4.89459 9.96751 4.63829C10.0494 4.38198 10.3238 4.24058 10.5803 4.32245Z" fill="#ABBBC2"/>
</svg>
