<svg width="20" height="20" viewBox="0 0 20 20" fill="none" xmlns="http://www.w3.org/2000/svg">
<path d="M11.951 0.716446L12.1333 0.886452L12.8521 1.6052C13.0989 1.85092 13.4228 2.00242 13.7673 2.03646L13.916 2.04378H14.944C16.5478 2.04378 17.8592 3.29795 17.9509 4.87883L17.956 5.05578V6.08278C17.956 6.43258 18.0766 6.76886 18.2942 7.03624L18.3933 7.14645L19.1121 7.86525C20.2436 8.99165 20.2942 10.7929 19.2576 11.98L19.1223 12.1251L18.3939 12.8535C18.149 13.099 17.9974 13.4231 17.9633 13.7672L17.956 13.9158V14.9448C17.956 16.5485 16.7019 17.8591 15.1209 17.9507L14.944 17.9558H13.916C13.5674 17.9558 13.2307 18.0769 12.9632 18.2951L12.8529 18.3945L12.1351 19.1113C11.0099 20.2442 9.20732 20.2944 8.0198 19.2574L7.86565 19.1131L7.14854 18.396C6.90014 18.1494 6.57571 17.9973 6.2322 17.9631L6.08398 17.9558H5.05498C3.45185 17.9558 2.1407 16.7023 2.0491 15.1217L2.04398 14.9448V13.9158C2.04398 13.5678 1.92268 13.2308 1.7046 12.9637L1.60528 12.8537L0.888155 12.1356C-0.24442 11.0094 -0.294658 9.20679 0.742362 8.02044L0.877652 7.87545L1.60377 7.14834C1.85072 6.89963 2.00255 6.57581 2.03664 6.23146L2.04398 6.08278V5.05578L2.0491 4.87885C2.13732 3.35668 3.35648 2.13715 4.87811 2.0489L5.05498 2.04378H6.08398C6.43246 2.04378 6.76923 1.9229 7.03628 1.70572L7.14628 1.60682L7.86445 0.887655C8.99082 -0.243823 10.7932 -0.293637 11.951 0.716446ZM9.0414 1.84256L8.92668 1.94674L8.20543 2.66899C7.68818 3.18258 7.00406 3.48966 6.28181 3.53727L6.08398 3.54378H5.05498C4.26742 3.54378 3.6197 4.14793 3.55016 4.91821L3.54398 5.05578V6.08278C3.54398 6.81195 3.27937 7.5131 2.80208 8.06116L2.66668 8.20674L1.93951 8.93491C1.3877 9.48923 1.35557 10.3649 1.84322 10.9589L1.94768 11.0738L2.66694 11.7941C3.18134 12.3097 3.48963 12.995 3.53744 13.7178L3.54398 13.9158V14.9448C3.54398 15.7328 4.14769 16.3801 4.9175 16.4496L5.05498 16.4558H6.08398C6.81177 16.4558 7.51353 16.7207 8.06171 17.198L8.20731 17.3335L8.93062 18.0568C9.48884 18.6119 10.3647 18.6442 10.9583 18.1565L11.073 18.0521L11.7939 17.3322C12.3106 16.8179 12.9951 16.5101 13.718 16.4623L13.916 16.4558H14.944C15.7327 16.4558 16.3803 15.8524 16.4498 15.0823L16.456 14.9448V13.9158C16.456 13.1869 16.7208 12.4839 17.1974 11.9383L17.3327 11.7935L18.0602 11.066C18.612 10.511 18.6439 9.63577 18.157 9.04195L18.0527 8.92711L17.3308 8.20523C16.8169 7.68765 16.5101 7.00422 16.4625 6.28094L16.456 6.08278V5.05578C16.456 4.26737 15.8519 3.61951 15.0816 3.54996L14.944 3.54378H13.916C13.1868 3.54378 12.4848 3.27939 11.9379 2.80243L11.7927 2.66711L11.1047 1.97734L11.0649 1.94031C10.5106 1.38855 9.63472 1.35624 9.0414 1.84256ZM13.0964 12.0424C13.1664 12.1124 13.2264 12.1924 13.2664 12.2824C13.2964 12.3724 13.3164 12.4724 13.3164 12.5724C13.3164 12.6734 13.2964 12.7624 13.2664 12.8524C13.2264 12.9424 13.1664 13.0324 13.0964 13.1024C12.9564 13.2424 12.7664 13.3224 12.5664 13.3224C12.3664 13.3224 12.1764 13.2424 12.0364 13.1024C11.9664 13.0324 11.9164 12.9424 11.8764 12.8524C11.8364 12.7624 11.8164 12.6734 11.8164 12.5724C11.8164 12.4724 11.8364 12.3724 11.8764 12.2824C11.9164 12.1924 11.9664 12.1124 12.0364 12.0424C12.3164 11.7624 12.8164 11.7624 13.0964 12.0424ZM13.1 6.89915C13.3663 7.16542 13.3905 7.58208 13.1726 7.87569L13.1 7.95981L7.96001 13.0998C7.66712 13.3927 7.19225 13.3927 6.89935 13.0998C6.63309 12.8335 6.60888 12.4169 6.82673 12.1233L6.89935 12.0392L12.0394 6.89915C12.3322 6.60626 12.8071 6.60626 13.1 6.89915ZM7.95628 6.90278C8.09628 7.04178 8.17628 7.23278 8.17628 7.43278C8.17628 7.53278 8.16628 7.62178 8.12628 7.71278C8.08628 7.80278 8.02628 7.88278 7.95628 7.96278C7.88628 8.03278 7.80628 8.08178 7.71628 8.12178C7.62628 8.16178 7.52628 8.18278 7.42628 8.18278C7.32628 8.18278 7.23628 8.16178 7.14628 8.12178C7.05628 8.08178 6.96628 8.03278 6.89628 7.96278C6.82628 7.88278 6.77628 7.80278 6.73628 7.71278C6.69628 7.62178 6.67628 7.53278 6.67628 7.43278C6.67628 7.33178 6.69628 7.23278 6.73628 7.14278C6.77628 7.05278 6.82628 6.96278 6.89628 6.90278C7.18628 6.62178 7.67628 6.62178 7.95628 6.90278Z" fill="#3B5162"/>
</svg>
