<svg width="16" height="16" viewBox="0 0 16 16" fill="none" xmlns="http://www.w3.org/2000/svg">
<path d="M14.6425 4.51624L13.6902 1.6591C13.6254 1.46454 13.4433 1.33332 13.2383 1.33337H2.76207C2.55702 1.33332 2.37496 1.46454 2.31018 1.6591L1.35778 4.51624C1.3431 4.56072 1.3349 4.60706 1.3335 4.65385C1.3335 4.65862 1.3335 4.66194 1.3335 4.66671V5.14291C1.33523 5.88901 1.68805 6.59079 2.28587 7.03719C2.28587 7.04101 2.28587 7.04386 2.28587 7.04766V13.2381C2.28587 14.0271 2.92547 14.6667 3.71444 14.6667H12.2859C13.0748 14.6667 13.7144 14.0271 13.7144 13.2381V7.04766C13.7144 7.04383 13.7144 7.04099 13.7144 7.03719C14.3123 6.59079 14.6651 5.88901 14.6668 5.14291V4.66671C14.6668 4.66194 14.6668 4.65862 14.6668 4.65385C14.6654 4.60703 14.6572 4.56069 14.6425 4.51624ZM3.1335 2.28574H12.8949L13.5302 4.19051H2.46683L3.1335 2.28574ZM8.95255 13.7143H7.04778V9.9048H8.95255V13.7143ZM12.7621 13.2381C12.7621 13.5011 12.5489 13.7143 12.2859 13.7143H9.90493V9.42862C9.90493 9.16562 9.69173 8.95242 9.42873 8.95242H6.57159C6.30858 8.95242 6.09539 9.16562 6.09539 9.42862V13.7143H3.71444C3.45144 13.7143 3.23825 13.5011 3.23825 13.2381V7.47623C3.90652 7.61342 4.60144 7.45393 5.14301 7.03909C5.99307 7.66342 7.1501 7.66342 8.00016 7.03909C8.85021 7.66342 10.0072 7.66342 10.8573 7.03909C11.3989 7.45396 12.0938 7.61342 12.7621 7.47623V13.2381ZM12.2859 6.57146C11.8741 6.5712 11.483 6.39057 11.2159 6.07718C11.0428 5.87916 10.742 5.8589 10.544 6.03195C10.5279 6.04598 10.5128 6.06111 10.4987 6.07718C9.96924 6.66814 9.06098 6.71794 8.47002 6.18848C8.43093 6.15343 8.39377 6.11629 8.35872 6.07718C8.17237 5.87916 7.86076 5.86967 7.66271 6.05605C7.65546 6.06289 7.6484 6.06992 7.64159 6.07718C7.11213 6.66814 6.20384 6.71794 5.61288 6.18848C5.57376 6.15343 5.53663 6.11629 5.50158 6.07718C5.31522 5.87916 5.00359 5.86967 4.80557 6.05605C4.79832 6.06289 4.79126 6.06992 4.78445 6.07718C4.51729 6.39057 4.12627 6.5712 3.71444 6.57146C2.92547 6.57146 2.28587 5.93186 2.28587 5.14289H13.7144C13.7144 5.93186 13.0748 6.57146 12.2859 6.57146Z" fill="#ABBBC2"/>
</svg>
