<svg width="16" height="16" viewBox="0 0 16 16" fill="none" xmlns="http://www.w3.org/2000/svg">
<path d="M8.00674 1.3334C9.54965 1.3334 10.9053 2.29938 11.4021 3.71113C11.494 3.97207 11.3534 4.25684 11.0882 4.34719C10.8229 4.43754 10.5335 4.29925 10.4416 4.03831C10.0854 3.02623 9.11313 2.3334 8.00472 2.3334C6.62673 2.32803 5.49704 3.38767 5.42213 4.72388L5.4182 4.85403L5.41816 5.75071L10.589 5.75094C12.2402 5.75094 13.5878 7.03051 13.6635 8.63696L13.6668 8.77953V11.6381C13.6668 13.3108 12.2888 14.6667 10.589 14.6667H5.41128C3.71152 14.6667 2.3335 13.3108 2.3335 11.6381V8.77953C2.3335 7.45489 3.19775 6.32888 4.40163 5.91767L4.40175 4.85184C4.41044 2.90059 6.02518 1.3257 8.00674 1.3334ZM10.589 6.75091H5.41128C4.27293 6.75091 3.34994 7.65912 3.34994 8.77953V11.6381C3.34994 12.7585 4.27293 13.6667 5.41128 13.6667H10.589C11.7274 13.6667 12.6504 12.7585 12.6504 11.6381V8.77953C12.6504 7.65912 11.7274 6.75091 10.589 6.75091ZM8.0003 8.96832C8.25759 8.96832 8.47023 9.15642 8.50388 9.40047L8.50852 9.46831V10.9496C8.50852 11.2257 8.28098 11.4496 8.0003 11.4496C7.74301 11.4496 7.53037 11.2615 7.49672 11.0175L7.49208 10.9496V9.46831C7.49208 9.19217 7.71962 8.96832 8.0003 8.96832Z" fill="#ABBBC2"/>
</svg>
