<svg width="24" height="24" viewBox="0 0 24 24" fill="none" xmlns="http://www.w3.org/2000/svg">
<path d="M13.9511 2.71645L14.1334 2.88645L14.8522 3.6052C15.0991 3.85092 15.4229 4.00242 15.7674 4.03646L15.9161 4.04378H16.9441C18.5479 4.04378 19.8594 5.29795 19.951 6.87883L19.9561 7.05578V8.08278C19.9561 8.43258 20.0767 8.76886 20.2943 9.03624L20.3934 9.14645L21.1122 9.86525C22.2437 10.9917 22.2943 12.7929 21.2577 13.98L21.1224 14.1251L20.3941 14.8535C20.1491 15.099 19.9975 15.4231 19.9634 15.7672L19.9561 15.9158V16.9448C19.9561 18.5485 18.702 19.8591 17.1211 19.9507L16.9441 19.9558H15.9161C15.5676 19.9558 15.2309 20.0769 14.9633 20.2951L14.8531 20.3945L14.1352 21.1113C13.01 22.2442 11.2074 22.2944 10.0199 21.2574L9.86577 21.1131L9.14866 20.396C8.90027 20.1494 8.57583 19.9973 8.23232 19.9631L8.0841 19.9558H7.0551C5.45197 19.9558 4.14083 18.7023 4.04922 17.1217L4.0441 16.9448V15.9158C4.0441 15.5678 3.92281 15.2308 3.70472 14.9637L3.60541 14.8537L2.88828 14.1356C1.7557 13.0094 1.70546 11.2068 2.74248 10.0204L2.87777 9.87545L3.60389 9.14834C3.85084 8.89963 4.00267 8.57581 4.03676 8.23146L4.0441 8.08278V7.05578L4.04922 6.87885C4.13744 5.35668 5.3566 4.13715 6.87824 4.0489L7.0551 4.04378H8.0841C8.43259 4.04378 8.76936 3.9229 9.0364 3.70572L9.14641 3.60682L9.86457 2.88765C10.9909 1.75618 12.7934 1.70636 13.9511 2.71645ZM11.0415 3.84256L10.9268 3.94674L10.2055 4.66899C9.6883 5.18258 9.00418 5.48966 8.28193 5.53727L8.0841 5.54378H7.0551C6.26754 5.54378 5.61982 6.14793 5.55028 6.91821L5.5441 7.05578V8.08278C5.5441 8.81195 5.2795 9.5131 4.80221 10.0612L4.6668 10.2067L3.93963 10.9349C3.38782 11.4892 3.35569 12.3649 3.84334 12.9589L3.9478 13.0738L4.66706 13.7941C5.18147 14.3097 5.48976 14.995 5.53756 15.7178L5.5441 15.9158V16.9448C5.5441 17.7328 6.14781 18.3801 6.91762 18.4496L7.0551 18.4558H8.0841C8.81189 18.4558 9.51365 18.7207 10.0618 19.198L10.2074 19.3335L10.9307 20.0568C11.489 20.6119 12.3649 20.6442 12.9584 20.1565L13.0731 20.0521L13.794 19.3322C14.3107 18.8179 14.9952 18.5101 15.7181 18.4623L15.9161 18.4558H16.9441C17.7328 18.4558 18.3804 17.8524 18.4499 17.0823L18.4561 16.9448V15.9158C18.4561 15.1869 18.7209 14.4839 19.1976 13.9383L19.3328 13.7935L20.0603 13.066C20.6121 12.511 20.644 11.6358 20.1571 11.0419L20.0528 10.9271L19.3309 10.2052C18.817 9.68765 18.5102 9.00422 18.4626 8.28094L18.4561 8.08278V7.05578C18.4561 6.26737 17.852 5.61951 17.0817 5.54996L16.9441 5.54378H15.9161C15.1869 5.54378 14.4849 5.27939 13.938 4.80243L13.7928 4.66711L13.1048 3.97734L13.065 3.94031C12.5107 3.38855 11.6348 3.35624 11.0415 3.84256ZM15.0965 14.0424C15.1665 14.1124 15.2265 14.1924 15.2665 14.2824C15.2965 14.3724 15.3165 14.4724 15.3165 14.5724C15.3165 14.6734 15.2965 14.7624 15.2665 14.8524C15.2265 14.9424 15.1665 15.0324 15.0965 15.1024C14.9565 15.2424 14.7665 15.3224 14.5665 15.3224C14.3665 15.3224 14.1765 15.2424 14.0365 15.1024C13.9665 15.0324 13.9165 14.9424 13.8765 14.8524C13.8365 14.7624 13.8165 14.6734 13.8165 14.5724C13.8165 14.4724 13.8365 14.3724 13.8765 14.2824C13.9165 14.1924 13.9665 14.1124 14.0365 14.0424C14.3165 13.7624 14.8165 13.7624 15.0965 14.0424ZM15.1001 8.89915C15.3664 9.16542 15.3906 9.58208 15.1728 9.87569L15.1001 9.95981L9.96013 15.0998C9.66724 15.3927 9.19237 15.3927 8.89947 15.0998C8.63321 14.8335 8.609 14.4169 8.82686 14.1233L8.89947 14.0392L14.0395 8.89915C14.3324 8.60626 14.8072 8.60626 15.1001 8.89915ZM9.9564 8.90278C10.0964 9.04178 10.1764 9.23278 10.1764 9.43278C10.1764 9.53278 10.1664 9.62178 10.1264 9.71278C10.0864 9.80278 10.0264 9.88278 9.9564 9.96278C9.8864 10.0328 9.8064 10.0818 9.7164 10.1218C9.6264 10.1618 9.5264 10.1828 9.4264 10.1828C9.3264 10.1828 9.2364 10.1618 9.1464 10.1218C9.0564 10.0818 8.9664 10.0328 8.8964 9.96278C8.8264 9.88278 8.7764 9.80278 8.7364 9.71278C8.6964 9.62178 8.6764 9.53278 8.6764 9.43278C8.6764 9.33178 8.6964 9.23278 8.7364 9.14278C8.7764 9.05278 8.8264 8.96278 8.8964 8.90278C9.1864 8.62178 9.6764 8.62178 9.9564 8.90278Z" fill="#EA7C69"/>
</svg>
