<svg width="18" height="16" viewBox="0 0 18 16" fill="none" xmlns="http://www.w3.org/2000/svg">
<path d="M14.1976 9.7271C15.927 9.7271 17.3329 11.1148 17.3329 12.8219C17.3329 14.528 15.927 15.9167 14.1976 15.9167C12.4683 15.9167 11.0624 14.528 11.0624 12.8219C11.0624 11.1148 12.4683 9.7271 14.1976 9.7271ZM14.1976 11.1787C13.279 11.1787 12.533 11.9151 12.533 12.8219C12.533 13.7277 13.279 14.4651 14.1976 14.4651C15.1162 14.4651 15.8623 13.7277 15.8623 12.8219C15.8623 11.9151 15.1162 11.1787 14.1976 11.1787ZM7.4308 12.0958C7.83667 12.0958 8.16608 12.421 8.16608 12.8216C8.16608 13.2223 7.83667 13.5474 7.4308 13.5474H1.40247C0.996596 13.5474 0.66719 13.2223 0.66719 12.8216C0.66719 12.421 0.996596 12.0958 1.40247 12.0958H7.4308ZM3.80174 0.083374C5.53112 0.083374 6.93698 1.47207 6.93698 3.17818C6.93698 4.88429 5.53112 6.27298 3.80174 6.27298C2.07334 6.27298 0.666504 4.88429 0.666504 3.17818C0.666504 1.47207 2.07334 0.083374 3.80174 0.083374ZM3.80174 1.53497C2.88411 1.53497 2.13707 2.27238 2.13707 3.17818C2.13707 4.08397 2.88411 4.82138 3.80174 4.82138C4.72035 4.82138 5.46642 4.08397 5.46642 3.17818C5.46642 2.27238 4.72035 1.53497 3.80174 1.53497ZM16.5979 2.45257C17.0038 2.45257 17.3332 2.77773 17.3332 3.17837C17.3332 3.57901 17.0038 3.90417 16.5979 3.90417H10.5686C10.1627 3.90417 9.8333 3.57901 9.8333 3.17837C9.8333 2.77773 10.1627 2.45257 10.5686 2.45257H16.5979Z" fill="white"/>
</svg>
